<?xml version="1.0" standalone="no"?>
<!DOCTYPE svg PUBLIC "-//W3C//DTD SVG 20010904//EN"
 "http://www.w3.org/TR/2001/REC-SVG-20010904/DTD/svg10.dtd">
<svg version="1.0" xmlns="http://www.w3.org/2000/svg"
 width="1920.000000pt" height="1080.000000pt" viewBox="0 0 1920.000000 1080.000000"
 preserveAspectRatio="xMidYMid meet">

<g transform="translate(0.000000,1080.000000) scale(0.100000,-0.100000)"
fill="#000000" stroke="none">
<path d="M0 5400 l0 -5400 9600 0 9600 0 0 5400 0 5400 -9600 0 -9600 0 0
-5400z m11210 2862 c0 -8 -1 -13 -3 -11 -1 2 -9 12 -16 22 -12 15 -12 17 3 11
9 -3 16 -13 16 -22z m-411 -146 c1 -16 -2 -26 -6 -23 -3 4 -21 -3 -40 -14
l-33 -21 32 61 c34 65 46 64 47 -3z m45 -100 c24 -50 19 -55 -15 -16 -20 22
-32 31 -36 23 -5 -15 -23 -18 -23 -5 0 8 36 30 51 31 4 1 14 -14 23 -33z m-30
-28 c-7 -10 -34 -10 -34 0 0 4 5 13 12 20 9 9 14 9 19 0 4 -7 5 -16 3 -20z
m-187 2 c19 -23 15 -40 -7 -40 -12 0 -20 7 -20 16 0 12 -8 15 -35 11 -44 -6
-46 9 -2 21 41 12 49 11 64 -8z m393 -1 c0 -5 -7 -9 -15 -9 -9 0 -12 6 -9 15
6 15 24 11 24 -6z m-328 -31 c-9 -9 -15 -9 -24 0 -9 9 -7 12 12 12 19 0 21 -3
12 -12z m-2040 -410 c-20 -20 -195 -70 -282 -82 -68 -8 -15 12 90 34 47 10
105 27 130 38 53 24 80 28 62 10z m-572 -36 c0 -18 89 -51 148 -56 73 -5 78
-8 63 -33 -6 -10 -11 -13 -11 -7 0 15 -115 -1 -141 -20 -11 -8 -29 -12 -40 -9
-30 8 -82 -38 -101 -92 -16 -42 -15 -81 1 -58 3 4 19 14 34 21 19 8 27 17 23
28 -3 8 1 17 9 20 8 4 12 10 9 15 -3 5 -2 9 3 10 28 2 58 11 68 19 6 5 22 11
35 13 14 3 38 10 53 16 53 21 52 11 -2 -24 -30 -19 -57 -32 -61 -30 -4 3 -13
-2 -20 -10 -7 -8 -20 -15 -29 -16 -10 0 -11 -2 -3 -6 17 -7 15 -24 -5 -39 -16
-11 -11 -13 35 -20 35 -4 52 -11 52 -21 0 -8 -6 -13 -12 -11 -7 1 -23 -2 -36
-6 -13 -4 -28 -3 -35 2 -13 10 -67 5 -80 -8 -5 -4 -4 -18 3 -30 15 -28 13 -29
-49 -39 -29 -5 -57 -13 -64 -20 -18 -18 -27 -13 -27 15 0 24 -3 26 -30 21 -18
-4 -30 -2 -30 4 0 6 -5 7 -10 4 -9 -6 -47 22 -39 29 2 1 26 13 52 25 26 13 55
34 65 48 27 38 54 66 94 96 20 14 43 34 52 42 9 9 24 18 33 20 23 4 73 24 73
28 0 2 -21 3 -47 3 -47 -1 -48 0 -57 36 -9 35 -12 37 -55 41 -40 3 -37 4 17 5
34 1 62 -1 62 -6z m2336 -31 c0 -11 -3 -19 -6 -19 -16 1 -30 -3 -42 -14 -30
-28 -51 -43 -47 -31 3 8 85 80 94 83 1 0 1 -9 1 -19z m-1870 -25 c13 -13 64
-18 189 -17 l30 0 -35 -30 c-31 -27 -36 -29 -46 -14 -10 14 -14 12 -33 -18
-27 -44 -27 -60 -1 -52 30 10 24 1 -20 -30 -26 -18 -48 -26 -64 -23 -14 3 -23
1 -20 -3 3 -5 -6 -9 -20 -9 -14 0 -65 -21 -113 -46 -99 -52 -103 -55 -85 -61
6 -3 12 -13 12 -23 0 -25 -50 -37 -66 -15 -11 14 -16 15 -47 2 -49 -21 -52
-34 -11 -47 43 -14 52 -34 29 -60 -16 -18 -17 -20 -1 -26 9 -4 24 0 34 9 10 9
39 17 65 19 50 3 62 20 30 43 -13 9 -13 14 -3 20 8 5 11 4 7 -1 -3 -5 21 -18
54 -28 32 -11 59 -23 59 -27 0 -4 11 -10 24 -13 14 -3 28 -15 31 -26 3 -11 16
-22 28 -25 110 -25 114 -25 230 6 36 10 40 8 87 -31 28 -23 50 -50 50 -60 0
-11 5 -22 10 -25 6 -3 10 3 10 14 0 12 7 21 15 21 18 0 20 -26 3 -36 -13 -8
17 -34 41 -34 9 0 39 -11 68 -24 28 -13 54 -22 58 -18 3 3 24 7 47 8 23 1 53
11 69 23 15 12 38 21 51 21 13 0 38 9 56 20 35 21 61 18 43 -4 -8 -9 -5 -19
10 -34 22 -24 58 -29 77 -10 9 9 15 8 24 -5 8 -11 30 -18 59 -19 26 -2 45 -6
42 -10 -2 -5 3 -8 12 -8 13 0 16 -6 11 -26 -6 -22 -4 -25 12 -20 14 5 21 -2
31 -29 12 -34 62 -72 80 -61 9 6 115 -25 149 -43 69 -37 202 -14 255 44 17 18
18 18 13 2 -3 -10 -6 -24 -6 -31 0 -8 -18 -25 -40 -40 -46 -30 -51 -46 -14
-46 15 0 36 -10 49 -24 19 -21 28 -23 57 -17 32 8 36 6 45 -20 8 -19 7 -31 0
-38 -8 -8 -8 -11 1 -11 7 0 18 -11 24 -25 8 -18 16 -24 27 -19 9 4 32 8 52 9
20 1 42 6 49 10 9 5 11 4 6 -3 -4 -7 -1 -12 9 -12 9 0 14 -4 11 -9 -4 -5 0
-11 6 -14 9 -3 6 -12 -11 -30 -25 -27 -23 -57 3 -57 8 0 19 7 24 16 7 12 13
13 34 4 18 -9 46 -9 97 -3 57 8 71 7 71 -4 0 -7 6 -13 13 -13 28 -1 -30 -30
-60 -30 -18 0 -33 -4 -33 -8 0 -16 24 -32 47 -32 20 0 22 -3 14 -18 -14 -26
17 -52 48 -40 24 8 61 -5 61 -23 0 -5 11 -15 25 -21 24 -11 36 -48 15 -48 -5
0 -10 3 -10 8 0 4 -10 12 -22 17 -13 6 -22 15 -21 21 1 5 -7 10 -18 10 -14 0
-17 -5 -13 -18 3 -10 3 -18 -1 -18 -16 0 -72 29 -84 43 -7 10 -22 17 -33 17
-19 0 -19 -2 -5 -22 8 -13 20 -22 27 -20 31 7 68 -40 38 -50 -6 -2 9 -26 35
-53 39 -40 48 -45 53 -31 4 10 2 22 -5 29 -16 16 -14 30 4 23 9 -3 15 0 15 9
0 8 7 15 15 15 8 0 15 -1 15 -3 0 -1 -6 -32 -14 -68 -11 -55 -20 -78 -43 -118
-2 -2 -14 8 -27 22 -14 15 -34 27 -45 27 -17 0 -19 -4 -11 -24 5 -13 6 -27 2
-32 -4 -4 -2 -4 4 -1 6 4 19 -2 28 -12 13 -15 14 -20 4 -24 -10 -4 -10 -7 1
-15 9 -6 15 -33 17 -73 2 -54 1 -61 -10 -47 -7 10 -16 14 -20 10 -4 -4 -14 2
-22 12 -15 21 -18 37 -6 34 13 -5 12 12 -5 46 -9 19 -24 36 -33 39 -16 4 -16
11 -5 75 14 84 7 105 -33 96 -15 -4 -30 -12 -34 -18 -4 -7 -18 0 -37 18 -17
16 -34 26 -38 22 -4 -4 10 -23 32 -42 38 -33 39 -34 21 -49 -15 -11 -23 -12
-33 -3 -11 9 -16 9 -22 0 -4 -7 -18 -11 -32 -10 -15 2 -23 -2 -21 -10 2 -9 -6
-12 -27 -9 -28 5 -29 4 -20 -20 5 -14 8 -28 5 -30 -7 -7 -46 16 -46 27 0 6 -5
10 -12 10 -9 0 -9 -3 0 -12 18 -18 15 -25 -13 -32 -41 -10 -58 -48 -53 -113 4
-43 10 -61 28 -75 13 -10 21 -21 18 -23 -3 -3 -11 1 -18 10 -16 19 -34 20 -27
1 3 -7 0 -36 -7 -62 -12 -49 -12 -49 -19 -17 -3 17 -5 40 -2 51 2 10 -2 19
-10 19 -8 0 -15 -21 -18 -57 -6 -58 -55 -226 -63 -217 -2 2 4 31 14 64 13 40
16 67 10 83 -5 12 -6 25 -3 28 3 3 5 0 5 -6 0 -7 4 -12 9 -12 5 0 7 9 4 20 -3
11 -9 20 -14 20 -5 0 -9 44 -9 97 0 53 -4 110 -9 127 -5 17 -14 64 -20 103
-12 83 -43 176 -76 236 -13 22 -21 45 -18 50 4 6 1 7 -7 2 -10 -6 -12 -4 -7 8
7 19 -18 44 -28 27 -4 -6 -1 -9 7 -8 7 2 12 -3 10 -11 -2 -8 2 -27 7 -42 7
-21 7 -29 -2 -29 -7 0 -6 -4 3 -10 8 -5 12 -10 8 -10 -4 0 -3 -11 2 -25 13
-36 4 -31 -16 8 -10 17 -19 27 -21 20 -2 -6 3 -25 12 -42 8 -17 20 -43 26 -57
8 -24 8 -25 -6 -14 -19 16 -19 19 10 -80 24 -82 32 -125 15 -85 -6 14 -9 1 -9
-45 -1 -61 -2 -64 -15 -39 -7 15 -19 51 -25 80 -7 30 -21 86 -32 124 -11 39
-24 86 -28 105 -10 43 -56 136 -73 146 -10 6 -11 4 0 -7 20 -22 14 -34 -8 -14
-20 18 -20 18 -14 -16 6 -31 2 -27 -44 38 -28 39 -56 74 -61 77 -16 10 -20
-21 -6 -41 8 -10 14 -25 14 -33 0 -12 -2 -11 -10 3 -17 28 -29 10 -29 -44 0
-28 -7 -63 -15 -78 -8 -16 -12 -31 -9 -33 6 -7 -17 -58 -26 -58 -4 0 -13 -20
-19 -44 -6 -25 -16 -48 -22 -52 -7 -4 -9 0 -6 12 13 47 18 96 9 90 -16 -9 -22
22 -11 51 14 38 20 105 8 98 -5 -4 -9 -13 -9 -21 0 -9 -10 -38 -22 -66 l-21
-50 -18 33 c-10 19 -18 51 -19 73 0 56 -22 168 -30 155 -4 -6 -6 -29 -4 -52 2
-37 1 -40 -11 -24 -12 17 -14 16 -20 -12 -5 -26 5 -127 20 -201 3 -14 -1 -8
-9 13 -25 64 -74 336 -78 430 -5 152 -32 120 -43 -52 -5 -70 -11 -108 -16
-100 -6 10 -9 3 -9 -21 0 -68 18 -66 25 3 4 37 11 64 16 61 5 -3 9 -40 9 -82
0 -42 5 -108 11 -147 6 -38 11 -77 12 -85 0 -8 3 -17 7 -20 5 -4 64 -163 77
-210 2 -8 -10 11 -27 43 -33 63 -45 73 -28 26 6 -16 8 -32 5 -35 -6 -7 -36 70
-47 120 -5 23 -16 61 -25 86 -10 25 -21 72 -26 105 -13 94 -21 125 -31 125 -5
0 -7 -9 -3 -19 5 -18 3 -18 -19 -8 -20 10 -24 17 -20 37 6 25 6 25 -9 -2 -9
-15 -26 -39 -39 -53 -13 -14 -30 -42 -37 -63 -7 -20 -20 -52 -28 -71 -9 -19
-21 -66 -28 -105 -12 -62 -13 -66 -15 -31 -2 39 -3 39 -10 10 l-8 -30 -1 33
c-2 60 31 246 51 285 11 22 17 41 15 44 -4 4 -33 -53 -65 -127 l-11 -25 0 30
c-1 17 6 55 14 85 19 69 19 75 0 57 -8 -9 -22 -37 -30 -64 -9 -26 -29 -88 -45
-138 -16 -49 -34 -124 -40 -165 -17 -118 -24 -124 -30 -25 l-5 90 -12 -105
-12 -105 4 110 c2 61 6 119 10 130 6 16 5 17 -4 5 -8 -12 -12 -8 -18 20 l-7
35 -12 -40 c-7 -22 -12 -53 -12 -70 0 -28 0 -28 13 10 7 22 14 36 15 30 3 -20
-2 -142 -10 -205 l-7 -65 -2 63 c-1 75 -13 74 -30 -3 -13 -57 -35 -71 -38 -24
-2 42 -4 45 -15 19 -11 -26 -26 -90 -35 -153 -21 -149 -33 133 -12 307 6 50
14 116 19 146 4 30 6 57 3 60 -2 3 -32 5 -66 6 -34 0 -72 5 -84 12 -23 13
-100 16 -127 6 -24 -9 -19 -40 9 -62 37 -29 31 -37 -28 -37 -39 1 -62 7 -95
28 -23 15 -40 32 -37 37 3 6 1 10 -5 10 -6 0 -16 5 -23 10 -7 6 -31 24 -53 40
-23 17 -44 39 -47 51 -4 16 -3 18 9 8 11 -9 14 -8 14 6 0 10 8 24 18 31 15 12
14 13 -14 14 -34 0 -93 25 -74 32 17 5 2 34 -25 46 -13 6 -28 20 -34 30 -9 16
-6 23 14 36 13 9 29 16 35 16 5 0 10 7 10 15 0 11 -12 15 -44 15 -25 0 -48 5
-51 10 -10 16 -82 12 -99 -6 -26 -25 -20 -52 14 -59 37 -8 38 -20 3 -37 -23
-11 -28 -20 -28 -51 0 -20 -3 -37 -7 -37 -5 0 -8 10 -8 22 0 12 -7 30 -17 40
-14 16 -15 23 -4 56 18 53 39 209 46 342 6 105 5 113 -9 96 -9 -11 -16 -25
-16 -32 0 -6 -11 -15 -25 -18 -14 -4 -25 -13 -25 -22 0 -8 -4 -13 -10 -9 -9 6
-26 -9 -58 -53 -12 -16 -30 -25 -60 -28 -23 -2 -65 -15 -93 -29 -27 -14 -61
-30 -75 -35 -23 -9 -24 -8 -19 28 11 94 15 101 62 122 37 16 43 23 38 40 -5
15 1 24 27 40 18 11 44 20 56 20 15 0 26 7 29 20 4 15 14 20 37 20 35 0 52 15
101 88 40 60 114 124 177 154 29 14 66 37 81 52 15 14 37 26 47 26 11 0 46 24
77 53 87 80 103 98 110 126 3 14 17 41 30 59 26 35 64 43 89 18z m-172 -35 c3
-5 -4 -11 -17 -15 -37 -10 -54 -7 -54 9 0 17 62 22 71 6z m1961 -133 c-29 -31
-34 -42 -24 -49 11 -7 10 -11 -6 -23 -11 -9 -29 -15 -40 -15 -20 0 -20 0 -1
14 11 8 23 15 26 15 4 0 7 7 7 15 0 8 -4 15 -9 15 -4 0 -8 7 -8 16 0 26 -23
10 -48 -32 l-23 -39 6 49 c10 75 9 74 86 74 l70 1 -36 -41z m410 24 c0 -18
-20 -15 -23 4 -3 10 1 15 10 12 7 -3 13 -10 13 -16z m-640 -12 c-3 -6 5 -14
19 -20 14 -5 26 -14 26 -19 0 -5 3 -17 7 -27 4 -11 2 -15 -4 -11 -6 4 -24 2
-41 -2 -26 -8 -34 -5 -61 23 -46 47 -42 66 15 66 27 0 43 -4 39 -10z m95 -120
c0 -5 6 -10 14 -10 23 0 38 -27 31 -58 -7 -34 -42 -75 -56 -66 -13 8 -59 -23
-59 -39 0 -9 -10 -12 -30 -9 -26 4 -30 8 -30 38 0 18 -4 36 -10 39 -20 12 -10
35 15 35 14 0 35 12 50 27 14 15 25 23 25 18 0 -5 7 1 16 13 16 23 34 29 34
12z m80 -290 c0 -5 -5 -10 -11 -10 -5 0 -7 5 -4 10 3 6 8 10 11 10 2 0 4 -4 4
-10z m272 -39 c-8 -4 -13 -12 -12 -17 4 -20 -35 -61 -78 -82 -25 -12 -47 -21
-49 -18 -6 5 130 126 142 126 5 0 4 -4 -3 -9z m-309 -47 c-6 -81 -14 -122 -27
-127 -13 -5 -13 18 -2 93 3 14 5 38 5 53 1 18 6 27 14 24 7 -2 11 -19 10 -43z
m1080 -129 c-3 -8 -9 -15 -14 -15 -10 0 -12 24 -3 33 11 11 24 -3 17 -18z
m-897 -58 c-2 -18 -9 -42 -17 -55 -13 -20 -18 -23 -35 -21 -4 0 -11 -5 -16
-13 -7 -9 -8 -1 -4 22 4 19 11 37 16 38 6 2 17 17 25 33 20 38 34 37 31 -4z
m492 8 c3 -31 -9 -41 -55 -48 -37 -4 -41 -3 -28 10 8 8 15 22 15 32 0 25 10
32 40 29 16 -2 26 -10 28 -23z m132 -61 c0 -8 -4 -12 -10 -9 -5 3 -10 10 -10
16 0 5 5 9 10 9 6 0 10 -7 10 -16z m-76 -110 c4 -10 1 -14 -6 -12 -15 5 -23
28 -10 28 5 0 13 -7 16 -16z m96 6 c0 -5 -2 -10 -4 -10 -3 0 -8 5 -11 10 -3 6
-1 10 4 10 6 0 11 -4 11 -10z m-247 -317 c-7 -2 -21 -2 -30 0 -10 3 -4 5 12 5
17 0 24 -2 18 -5z m-63 -123 c0 -5 -2 -10 -4 -10 -3 0 -8 5 -11 10 -3 6 -1 10
4 10 6 0 11 -4 11 -10z m-2139 -97 c18 -57 9 -64 -57 -42 -32 11 -68 28 -79
39 -12 11 -26 20 -33 20 -6 0 -13 4 -16 9 -3 4 35 8 84 8 l89 0 12 -34z m960
-7 c-11 -26 -31 -36 -31 -14 0 13 31 50 37 44 2 -2 -1 -15 -6 -30z m907 -146
c41 -38 55 -64 29 -54 -16 6 -91 94 -80 94 4 0 27 -18 51 -40z m-663 1 c15 -6
6 -9 -32 -13 -34 -3 -67 -15 -94 -32 -48 -33 -47 -42 4 -21 48 20 55 19 59 -7
4 -31 31 -29 38 2 5 20 12 25 36 23 16 -2 41 -4 56 -5 18 -1 28 -8 32 -24 8
-32 -5 -145 -20 -175 -7 -14 -20 -68 -28 -120 -9 -52 -26 -121 -39 -154 -13
-33 -27 -72 -30 -86 -4 -14 -33 -53 -66 -87 -49 -50 -71 -64 -117 -78 -140
-41 -266 5 -396 144 -74 79 -95 119 -107 202 -10 72 -23 161 -36 245 -5 32 -4
36 5 23 6 -10 14 -41 17 -69 3 -28 12 -57 20 -64 7 -8 22 -35 33 -61 11 -26
22 -45 24 -43 2 2 -6 54 -19 114 -12 61 -25 136 -29 167 -7 56 -7 58 19 68 45
17 65 13 65 -15 0 -31 29 -34 37 -5 6 24 13 25 60 5 41 -17 43 -18 43 -7 0 17
-85 55 -139 63 -44 6 -38 7 28 3 46 -3 89 -8 95 -10 10 -4 28 -31 76 -114 31
-52 95 -122 153 -166 32 -25 60 -44 61 -42 1 2 -2 48 -7 104 -11 112 -8 135
25 184 32 47 118 72 173 51z m710 -1 c3 -5 1 -10 -4 -10 -6 0 -11 5 -11 10 0
6 2 10 4 10 3 0 8 -4 11 -10z m-1568 -72 c-2 -13 -4 -5 -4 17 -1 22 1 32 4 23
2 -10 2 -28 0 -40z m1648 11 c0 -8 5 -17 10 -21 6 -5 4 -8 -5 -8 -8 1 -23 12
-33 25 -18 25 -18 25 5 22 13 -2 23 -10 23 -18z m-277 -59 c-7 -10 -14 -18
-15 -16 -6 6 9 36 18 36 5 0 4 -9 -3 -20z m-261 -22 c-3 -7 -5 -2 -5 12 0 14
2 19 5 13 2 -7 2 -19 0 -25z m-1270 -111 c-2 -23 -3 -1 -3 48 0 50 1 68 3 42
2 -26 2 -67 0 -90z m1280 61 c-3 -7 -5 -2 -5 12 0 14 2 19 5 13 2 -7 2 -19 0
-25z m-60 -30 c-2 -13 -4 -5 -4 17 -1 22 1 32 4 23 2 -10 2 -28 0 -40z m314
29 c-13 -13 -26 -3 -16 12 3 6 11 8 17 5 6 -4 6 -10 -1 -17z m19 -92 c10 -12
16 -13 27 -4 10 9 17 9 25 1 30 -30 -32 -36 -68 -6 -21 16 -24 23 -13 24 9 0
22 -7 29 -15z m-1543 -107 c-3 -8 -6 -5 -6 6 -1 11 2 17 5 13 3 -3 4 -12 1
-19z m-2274 -20 c-17 -21 -20 -73 -6 -87 19 -17 16 -29 -14 -61 -16 -15 -29
-34 -31 -41 -6 -22 -23 -39 -33 -33 -5 3 -6 10 -3 16 4 6 2 8 -4 5 -5 -4 -8
-16 -5 -27 6 -22 -61 -110 -83 -110 -17 0 -18 -17 -1 -23 7 -3 5 -6 -5 -6 -16
-1 -23 -19 -19 -45 3 -16 -22 -37 -37 -31 -8 3 -26 -2 -39 -10 -21 -14 -26
-14 -45 -1 -12 9 -23 23 -24 32 -2 14 -1 14 14 0 11 -9 23 -12 31 -7 9 6 10
11 2 15 -6 4 -11 2 -11 -5 0 -8 -3 -10 -10 -3 -6 6 -4 25 6 52 8 24 11 48 8
54 -5 7 -1 9 9 5 11 -4 21 1 28 14 7 13 16 18 27 14 9 -3 13 -3 9 1 -8 8 27
69 59 102 12 12 27 37 34 55 16 40 132 159 144 147 6 -6 5 -14 -1 -22z m-542
-2 c-5 -6 -8 -28 -6 -49 3 -34 1 -37 -22 -37 -19 0 -23 -3 -15 -12 10 -13 12
-19 12 -38 0 -5 5 -10 10 -10 6 0 10 9 10 20 0 17 2 19 14 8 9 -8 11 -19 5
-29 -4 -9 -5 -19 -2 -23 3 -3 1 -6 -6 -6 -7 0 -6 -9 5 -26 12 -18 14 -28 6
-33 -6 -4 -9 -20 -6 -39 6 -38 -13 -44 -22 -7 -4 15 -1 32 7 41 11 14 11 18
-2 28 -9 6 -14 16 -12 23 6 17 -17 27 -30 13 -9 -10 -9 -11 0 -6 6 3 14 2 18
-4 3 -5 1 -10 -4 -10 -6 0 -11 -5 -11 -11 0 -5 5 -7 10 -4 6 3 10 -4 10 -16 0
-17 -3 -19 -13 -10 -8 6 -17 8 -21 4 -4 -4 -4 0 0 10 4 12 -2 26 -20 44 -14
14 -26 34 -26 44 0 21 21 71 33 80 5 3 8 9 8 13 -4 27 1 46 9 41 6 -4 8 -10 5
-14 -2 -5 4 -16 15 -26 19 -18 20 -17 22 11 0 16 1 34 1 41 0 6 6 9 13 6 10
-4 11 -9 5 -17z m856 -21 c0 -8 -4 -12 -9 -9 -4 3 -8 9 -8 15 0 5 4 9 8 9 5 0
9 -7 9 -15z m3749 -39 c23 -32 16 -39 -17 -19 -45 27 -53 39 -23 38 14 0 32
-9 40 -19z m-4919 -12 c-3 -3 -12 -4 -19 -1 -8 3 -5 6 6 6 11 1 17 -2 13 -5z
m22 -32 c6 -11 12 -31 15 -45 2 -15 7 -30 10 -35 4 -6 -19 -7 -55 -3 -9 1 -17
72 -11 89 6 18 30 15 41 -6z m-165 -34 c21 -41 14 -46 -30 -22 -46 24 -51 34
-20 34 14 0 26 5 26 10 0 18 8 11 24 -22z m-87 16 c-3 -3 -12 -4 -19 -1 -8 3
-5 6 6 6 11 1 17 -2 13 -5z m581 -79 c0 -30 -7 -28 -13 4 -2 11 0 21 4 21 5 0
9 -11 9 -25z m762 -8 c0 -60 -101 -144 -200 -166 -49 -11 -110 3 -110 25 0 25
83 99 150 132 81 41 160 46 160 9z m-1393 -108 c7 -9 13 -20 11 -25 -4 -14 23
-74 33 -74 5 0 14 -11 19 -25 5 -14 16 -25 24 -25 8 0 16 -4 18 -8 2 -4 20
-21 41 -36 l38 -29 -31 -18 c-34 -21 -41 -44 -10 -36 11 3 23 1 26 -4 3 -5 0
-9 -7 -9 -8 0 -8 -4 1 -15 10 -12 9 -15 -5 -15 -27 0 -12 -23 35 -50 23 -14
47 -35 51 -48 5 -13 5 -21 1 -18 -4 3 -14 -5 -21 -16 -11 -18 -11 -20 3 -15
13 5 14 3 3 -13 -12 -20 -12 -20 -29 2 -18 23 -22 38 -19 73 2 17 0 17 -8 5
-9 -13 -11 -13 -11 1 0 9 -10 24 -22 35 -12 10 -18 13 -14 7 14 -25 -13 -13
-33 15 -11 15 -32 39 -46 53 -29 28 -38 58 -22 77 5 7 7 15 4 18 -3 3 -1 19 3
35 8 26 6 31 -16 41 -13 6 -24 17 -24 25 0 7 -5 13 -11 13 -6 0 -17 7 -26 15
-14 14 -12 18 13 40 17 15 23 25 15 25 -8 0 -23 -7 -33 -17 -12 -10 -18 -12
-18 -4 0 7 -4 9 -10 6 -6 -4 -7 1 -3 10 3 10 0 21 -7 25 -11 7 -11 12 -1 23 9
12 9 16 -1 20 -9 4 -8 6 3 6 9 1 20 9 24 19 6 13 12 8 27 -28 11 -25 27 -52
35 -61z m182 61 c60 -30 91 -73 91 -126 0 -42 -1 -44 -30 -44 -53 0 -172 134
-156 175 8 21 50 19 95 -5z m351 0 c0 -5 -2 -10 -4 -10 -3 0 -8 5 -11 10 -3 6
-1 10 4 10 6 0 11 -4 11 -10z m4217 -23 c9 -6 10 -15 3 -28 -18 -32 -57 0 -44
36 6 14 15 13 41 -8z m3857 -4 c3 -10 5 -40 5 -68 -1 -46 -2 -49 -15 -30 -9
11 -13 30 -11 43 3 14 -1 22 -9 22 -15 0 -17 10 -8 34 8 21 31 20 38 -1z m-89
-59 c10 -10 13 -24 9 -37 -6 -20 -6 -20 10 -4 13 13 22 14 36 7 26 -14 15 -37
-20 -42 -43 -6 -58 6 -58 52 -1 45 0 46 23 24z m-6995 -9 c0 -8 4 -15 8 -15
13 0 42 -57 42 -84 0 -16 -8 -30 -22 -38 -23 -13 -29 -15 -61 -17 -10 0 -16
-5 -13 -10 7 -10 -17 -21 -45 -21 -10 0 -18 -4 -16 -9 5 -19 -168 -157 -178
-141 -4 7 -13 6 -26 -1 -12 -6 -24 -8 -27 -4 -8 8 35 45 52 45 6 0 19 12 29
25 17 23 17 26 2 31 -13 5 -14 9 -4 15 7 4 19 3 25 -2 15 -13 47 18 40 38 -7
18 29 50 66 58 14 3 29 13 32 21 3 9 10 13 15 9 6 -3 24 8 41 25 17 16 36 30
42 30 6 0 8 3 4 8 -4 4 -13 7 -18 7 -6 0 -13 6 -15 13 -3 6 0 12 7 12 6 0 8 5
5 10 -3 6 -1 10 4 10 6 0 11 -7 11 -15z m2032 -42 c-3 -16 -7 -22 -9 -15 -3 6
-16 12 -29 12 -28 0 -32 16 -6 23 42 11 49 8 44 -20z m5414 -62 c13 -20 24
-44 24 -53 0 -10 5 -18 11 -18 6 0 9 -7 5 -15 -3 -8 -2 -15 2 -15 5 0 17 -7
28 -16 19 -15 19 -16 -1 -9 -11 4 -27 8 -35 9 -8 1 -28 10 -44 21 -21 14 -31
16 -34 7 -2 -6 -9 -12 -16 -12 -32 0 -45 -86 -22 -150 12 -34 66 -74 73 -54
12 33 20 36 64 23 24 -7 50 -11 58 -10 9 2 7 -6 -7 -24 -11 -14 -24 -26 -29
-27 -21 -1 -43 -21 -43 -38 0 -23 18 -36 25 -18 3 8 13 14 23 15 14 1 17 -8
19 -48 3 -43 0 -49 -16 -49 -22 0 -56 -43 -66 -82 -8 -29 -35 -47 -35 -22 0 8
-5 12 -11 8 -8 -4 -8 -9 0 -17 6 -6 11 -19 11 -29 0 -20 15 -24 26 -7 13 22
26 -19 13 -43 -7 -13 -16 -39 -20 -58 -12 -53 -58 -180 -75 -206 -9 -12 -15
-31 -14 -41 3 -29 0 -57 -5 -51 -3 2 -9 27 -14 54 -9 45 -6 56 25 128 19 44
34 87 34 95 0 19 -79 -118 -80 -138 0 -8 -8 -23 -17 -34 -13 -14 -18 -35 -17
-78 1 -39 -3 -58 -10 -56 -6 2 -13 12 -15 23 -2 10 -8 22 -15 27 -8 5 -7 9 2
16 10 6 6 11 -16 19 -21 7 -33 7 -41 -1 -8 -8 -14 -8 -23 1 -10 10 -9 19 1 45
28 69 37 115 36 187 0 62 -3 75 -17 78 -30 6 -56 -63 -50 -130 2 -32 8 -55 13
-53 4 3 10 1 14 -5 3 -5 -1 -10 -9 -10 -9 0 -18 -11 -22 -25 -5 -20 -10 -23
-34 -19 -46 10 -67 -10 -90 -82 -11 -36 -20 -70 -20 -75 0 -12 30 -11 31 1 1
6 2 16 3 23 1 17 46 22 46 5 0 -7 -10 -22 -22 -32 l-21 -19 34 -28 c19 -16 39
-29 45 -29 17 0 24 50 11 72 -9 13 -8 21 0 29 10 10 15 6 22 -14 6 -15 21 -29
36 -33 27 -7 32 -18 14 -30 -8 -5 -8 -9 1 -14 9 -6 3 -17 -21 -39 -28 -26 -40
-30 -67 -26 -20 4 -40 1 -48 -6 -11 -9 -18 -3 -34 34 -11 26 -25 49 -30 52
-13 8 -13 -71 0 -95 8 -15 6 -22 -12 -31 -13 -7 -32 -13 -42 -14 -10 -1 -25
-10 -33 -21 -13 -17 -12 -19 7 -22 12 -2 28 2 37 10 14 12 15 9 9 -25 -4 -22
-12 -49 -18 -60 -10 -23 -128 -107 -149 -107 -6 0 -9 -6 -6 -13 3 -7 -1 -21
-9 -32 -10 -13 -14 -15 -14 -4 0 21 -49 -40 -57 -70 -3 -14 -10 -32 -16 -39
-5 -6 -7 -26 -3 -44 14 -70 -21 -137 -48 -92 -6 10 -11 24 -11 29 -1 26 -16
33 -48 24 -17 -5 -58 -6 -89 -3 -56 6 -58 6 -68 -21 -9 -23 -13 -25 -25 -15
-12 10 -19 10 -33 -2 -22 -19 -52 -30 -52 -19 0 5 11 16 24 24 13 9 31 37 40
64 32 92 33 86 -2 79 -18 -3 -46 -9 -64 -12 -17 -4 -55 -26 -83 -49 -31 -25
-71 -47 -100 -54 -47 -12 -48 -12 -28 -31 18 -16 19 -23 10 -53 -6 -20 -14
-35 -17 -35 -34 3 -43 -35 -11 -51 15 -8 20 -7 25 5 3 8 14 14 23 13 24 -4 62
10 96 33 15 11 27 15 27 10 0 -6 -7 -12 -15 -16 -26 -10 -17 -29 10 -22 28 7
33 -5 10 -24 -16 -13 -21 -35 -6 -26 5 4 11 1 13 -4 2 -6 36 -13 76 -17 58 -5
70 -8 61 -19 -6 -7 -8 -18 -4 -24 9 -14 -69 -117 -95 -125 -11 -3 -20 -11 -20
-16 0 -6 5 -7 10 -4 6 4 17 4 25 2 15 -6 -37 -65 -97 -110 -28 -21 -38 -35
-38 -56 0 -27 -3 -29 -52 -35 -32 -5 -54 -3 -58 3 -3 6 -24 12 -46 14 -21 2
-51 7 -65 11 -21 6 -31 2 -53 -24 -14 -17 -26 -40 -26 -50 0 -10 -3 -26 -7
-36 -5 -14 -3 -16 10 -11 54 22 53 22 36 1 -14 -16 -49 -81 -49 -90 0 -1 10
-4 22 -6 34 -5 32 -24 -4 -39 -18 -8 -36 -13 -40 -11 -5 1 -8 -7 -8 -19 0 -20
-38 -64 -75 -85 -16 -10 -18 -16 -9 -30 6 -10 22 -21 35 -24 15 -4 25 -14 27
-28 5 -32 -16 -27 -54 12 -33 34 -73 45 -169 48 -46 1 -51 -3 -70 -57 -10 -30
-24 -55 -31 -55 -8 0 -11 6 -8 15 9 22 -19 19 -40 -4 -11 -13 -15 -27 -11 -44
6 -23 3 -27 -21 -33 -18 -5 -29 -3 -32 5 -2 6 -10 17 -17 25 -8 7 -12 16 -9
19 9 8 -27 57 -37 51 -5 -3 -9 -16 -9 -29 0 -28 -20 -45 -21 -18 0 16 -1 16
-8 -2 -8 -19 -8 -19 -15 2 -4 13 -12 23 -17 23 -5 0 -9 9 -9 19 0 13 -8 21
-22 23 -19 2 -23 9 -21 33 1 17 -1 22 -4 13 -5 -21 -23 -24 -23 -4 0 23 25 36
61 30 32 -5 39 -1 93 52 56 56 59 57 67 36 5 -12 16 -22 26 -22 17 0 58 52 75
93 7 15 28 21 68 18 25 -2 84 55 76 74 -5 13 -2 16 10 11 17 -6 44 9 44 25 0
5 -11 9 -24 9 -21 0 -25 7 -35 60 -8 41 -18 63 -32 70 -29 16 -12 33 27 27 19
-3 36 -1 39 4 4 5 15 9 26 9 10 0 19 7 19 15 0 8 6 15 13 15 6 0 22 16 35 35
l23 36 -26 -7 c-16 -4 -25 -2 -25 5 0 6 14 14 30 18 17 3 30 8 30 12 0 3 3 17
7 29 l6 24 -33 -17 c-18 -10 -60 -20 -92 -22 l-58 -6 13 27 c14 26 122 106
145 106 11 0 16 -13 13 -33 -2 -12 56 21 93 54 20 17 43 29 53 28 25 -3 73 11
73 22 0 5 9 9 20 9 11 0 20 5 20 10 0 6 -11 8 -27 4 -30 -7 -31 -7 -51 -5 -20
2 -11 63 12 80 56 42 129 120 145 155 10 23 25 49 33 60 13 17 14 14 14 -29
-1 -51 21 -75 31 -36 3 12 10 20 17 19 14 -3 126 105 126 121 0 14 -33 7 -66
-14 -27 -17 -96 -23 -101 -9 -2 6 6 32 17 58 11 26 20 61 20 78 l0 30 31 -32
c19 -18 38 -29 48 -26 9 3 38 10 64 16 76 16 125 57 55 46 -17 -3 -44 -2 -60
1 -27 5 -28 7 -12 24 9 11 27 19 39 19 42 0 130 43 161 78 36 40 69 48 89 20
9 -15 14 -16 18 -6 4 9 6 8 6 -3 1 -9 12 -21 26 -27 36 -16 31 -39 -20 -107
-31 -42 -45 -70 -45 -92 0 -18 3 -33 8 -33 13 0 12 -62 -3 -90 -15 -29 -16
-70 -3 -70 25 0 63 41 108 115 27 46 50 89 50 95 0 6 11 31 24 56 21 39 23 50
13 77 -6 18 -11 51 -11 74 -1 23 -7 48 -13 54 -7 7 -13 18 -13 25 0 6 -7 14
-15 18 -8 3 -15 17 -15 31 0 14 -9 30 -20 37 -11 7 -20 18 -20 25 0 12 60 63
74 63 5 0 21 9 38 21 20 14 28 28 26 43 -4 29 75 108 105 104 16 -2 22 2 21
15 -2 13 1 15 11 7 7 -6 20 -8 29 -4 12 5 13 10 5 26 -6 11 -13 17 -16 14 -4
-3 -14 1 -24 10 -29 26 1 60 70 80 31 9 69 23 84 31 26 13 31 13 46 -1 27 -24
42 -20 109 30 60 45 71 60 54 80 -17 19 -42 102 -36 118 6 15 7 15 20 -1 12
-15 15 -16 23 -3 13 20 6 28 -37 40 -31 8 -39 7 -49 -7 -10 -12 -10 -20 -1
-30 9 -11 7 -18 -5 -31 -16 -15 -17 -15 -17 4 0 26 -57 47 -115 42 -35 -3 -40
-6 -38 -25 3 -22 2 -22 -16 -4 -18 18 -25 75 -9 65 4 -3 17 0 28 6 16 9 25 8
35 0 15 -12 35 -6 35 12 0 5 -7 8 -15 4 -8 -3 -15 0 -15 5 0 7 11 9 25 7 14
-3 25 -1 25 3 0 5 10 11 23 15 22 6 60 71 73 127 4 18 13 27 25 27 20 0 23 5
33 52 5 23 10 26 36 22 16 -3 30 -1 30 5 0 15 -14 21 -30 11 -20 -12 -47 5
-66 42 l-16 31 26 -7 c14 -3 37 -9 51 -12 19 -5 25 -2 25 11 0 9 6 26 12 38
l13 22 3 -24 c2 -14 15 -41 28 -60z m-5707 23 c-5 -6 -5 -14 -1 -18 4 -4 3 -6
-3 -5 -9 2 -71 -22 -105 -42 -26 -15 -62 -30 -143 -59 -43 -15 -86 -34 -95
-43 -31 -27 -62 -39 -62 -25 0 17 103 93 165 122 28 12 83 33 122 45 40 13 75
26 78 31 3 4 16 7 29 6 16 -1 21 -5 15 -12z m2081 -95 c0 -5 -13 -3 -30 6 -16
9 -30 20 -30 26 0 5 14 3 30 -6 17 -9 30 -20 30 -26z m3310 -36 c13 -11 13
-14 0 -24 -11 -8 -12 -12 -2 -16 19 -8 15 -44 -5 -41 -16 3 -18 -5 -17 -60 1
-51 -2 -62 -13 -58 -8 4 -17 6 -19 6 -2 0 -4 7 -4 17 0 9 -11 31 -25 49 -28
36 -32 54 -12 54 7 0 8 3 2 8 -5 4 -10 32 -10 63 0 46 2 53 13 42 7 -7 23 -13
34 -13 17 0 18 3 8 15 -6 8 -8 20 -4 26 5 9 13 1 23 -22 9 -19 23 -40 31 -46z
m-3332 8 c15 -28 58 -41 48 -15 -2 6 -1 16 3 22 9 16 41 -28 65 -88 l18 -45
-42 43 c-23 23 -46 40 -51 36 -5 -3 -9 -27 -9 -55 0 -28 -5 -49 -11 -49 -15 0
-44 16 -146 83 -122 78 -124 100 -5 44 35 -16 48 -18 68 -9 26 13 31 31 12 50
-9 9 -7 12 10 12 15 0 29 -11 40 -29z m3365 5 c15 -12 24 -36 12 -36 -2 0 -15
11 -29 25 -26 26 -14 34 17 11z m-7436 -10 c-2 -6 -14 -11 -26 -10 -17 1 -21
-4 -18 -18 6 -22 -6 -23 -27 -2 -17 17 -21 28 -7 20 5 -3 11 0 14 7 6 16 69
19 64 3z m-1037 -11 c7 -9 8 -15 2 -15 -5 0 -12 7 -16 15 -3 8 -4 15 -2 15 2
0 9 -7 16 -15z m208 -40 c-3 -3 -9 2 -12 12 -6 14 -5 15 5 6 7 -7 10 -15 7
-18z m-160 -2 c-13 -16 -20 -16 -42 0 -16 12 -15 13 17 13 27 -1 33 -4 25 -13z
m8242 -8 c-7 -8 -16 -15 -21 -15 -5 0 -9 7 -9 15 0 9 9 15 21 15 18 0 19 -2 9
-15z m-3010 -107 c0 -14 -19 1 -31 25 -12 22 -12 22 10 3 11 -11 21 -23 21
-28z m-4393 -4 c13 -12 13 -18 4 -24 -10 -6 -10 -9 -1 -15 7 -4 16 -2 20 5 5
8 10 9 14 2 7 -12 -42 -54 -55 -46 -10 6 -13 94 -3 94 3 0 13 -7 21 -16z
m4188 -24 c12 -19 -14 -10 -42 16 l-28 25 32 -15 c17 -9 35 -20 38 -26z m3242
-10 c3 -16 10 -30 15 -30 5 0 6 -5 3 -10 -3 -6 1 -17 9 -26 9 -9 13 -21 9 -27
-3 -5 -7 -29 -7 -51 -1 -35 -4 -41 -23 -42 -16 -1 -23 6 -27 27 -4 22 -10 27
-23 23 -14 -5 -15 -4 -4 4 9 6 12 20 8 38 -3 15 -1 38 4 51 5 13 5 23 0 23 -4
0 -6 11 -3 25 6 35 31 31 39 -5z m24 7 c-10 -9 -11 -8 -5 6 3 10 9 15 12 12 3
-3 0 -11 -7 -18z m-3125 -89 c22 -24 44 -43 49 -43 6 -1 22 -7 38 -15 22 -11
30 -11 40 -1 6 7 8 12 2 11 -20 -4 -35 0 -35 10 0 20 30 22 56 5 21 -14 24
-19 13 -26 -12 -7 -12 -9 0 -9 8 0 20 -8 28 -17 8 -10 12 -12 8 -5 -14 27 14
10 48 -30 54 -62 53 -61 62 -93 13 -48 13 -52 4 -66 -7 -11 -9 -10 -9 4 0 9
-4 17 -9 17 -5 0 -17 7 -25 16 -10 10 -16 11 -16 4 0 -7 -7 -10 -14 -7 -10 4
-13 1 -9 -9 3 -7 1 -14 -5 -14 -5 0 -13 7 -16 16 -4 9 -9 14 -12 11 -10 -10
-56 52 -58 78 0 16 -7 25 -17 25 -17 0 -81 64 -73 73 3 2 -6 7 -20 11 -23 6
-116 94 -125 118 -7 21 57 -23 95 -64z m74 22 c0 -5 -5 -10 -11 -10 -5 0 -7 5
-4 10 3 6 8 10 11 10 2 0 4 -4 4 -10z m34 -18 c6 -10 -30 -43 -38 -35 -7 8 12
43 24 43 5 0 11 -4 14 -8z m2966 -133 c0 -10 -7 -19 -15 -19 -16 0 -19 9 -9
34 8 20 24 11 24 -15z m-7794 -94 c-19 -29 -10 -34 11 -7 14 16 14 16 8 -3 -4
-11 -9 -29 -12 -40 -4 -16 -3 -17 6 -5 8 11 11 12 11 2 0 -7 5 -10 10 -7 21
13 9 -9 -17 -31 -18 -16 -29 -20 -32 -12 -2 7 1 14 7 16 8 2 7 13 -4 35 -15
29 -15 33 2 65 10 19 20 29 22 23 2 -7 -3 -23 -12 -36z m7720 -96 c10 -17 -13
-36 -27 -22 -12 12 -4 33 11 33 5 0 12 -5 16 -11z m-7693 -23 c-10 -13 -20
-20 -22 -14 -1 5 5 16 15 23 26 20 28 18 7 -9z m6157 20 c0 -3 -4 -8 -10 -11
-5 -3 -10 -1 -10 4 0 6 5 11 10 11 6 0 10 -2 10 -4z m-563 -43 c2 -6 -3 -13
-12 -16 -10 -5 -15 0 -15 14 0 21 21 22 27 2z m-5617 -115 c0 -5 -4 -8 -10 -8
-5 0 -10 10 -10 23 0 18 2 19 10 7 5 -8 10 -18 10 -22z m7510 10 c-14 -5 -38
-14 -55 -19 l-30 -8 24 19 c13 11 37 20 55 19 31 0 31 0 6 -11z m-5590 -55 c0
-27 -5 -75 -10 -108 -6 -33 -15 -109 -20 -170 -20 -242 -58 -504 -80 -560 -7
-18 -9 -17 -20 12 -7 18 -15 31 -20 28 -4 -2 -19 6 -33 19 -20 18 -25 32 -22
54 2 20 -2 32 -11 36 -7 3 -13 2 -11 -2 1 -4 -2 -8 -8 -10 -5 -1 -11 6 -13 18
-2 11 -8 20 -13 20 -6 0 -7 5 -3 12 5 8 2 9 -9 5 -27 -10 -77 101 -84 187 -6
62 -4 69 10 63 14 -5 17 1 17 36 0 36 6 48 33 74 17 17 37 32 42 34 6 2 27 15
47 29 34 23 38 29 38 70 1 25 9 60 19 79 18 35 19 35 32 13 17 -27 36 -28 44
-2 3 11 11 20 16 20 5 0 9 5 9 11 0 6 -9 9 -20 6 -10 -3 -27 1 -37 8 -17 13
-17 14 2 20 11 3 36 14 55 24 49 26 50 26 50 -26z m-1898 -6 c3 4 3 2 1 -5 -1
-8 -3 -20 -3 -28 0 -8 -5 -14 -11 -14 -5 0 -7 5 -4 10 3 6 0 13 -9 16 -8 3
-12 12 -9 20 4 11 9 12 18 4 7 -6 15 -7 17 -3z m5512 -101 c12 5 16 -1 16 -22
0 -16 5 -36 10 -44 8 -13 10 -13 10 2 0 23 18 32 36 18 9 -8 14 -29 13 -60 -1
-26 2 -53 7 -61 10 -16 14 -129 4 -129 -8 0 -30 61 -31 91 -1 17 -3 19 -6 7
-6 -26 -17 -22 -31 10 l-11 27 4 -30 c2 -16 6 -43 9 -60 5 -28 4 -27 -12 7
-19 42 -21 43 -45 26 -15 -12 -15 -16 4 -58 20 -45 23 -121 4 -127 -14 -4 -43
71 -51 130 -4 30 -13 51 -24 57 -25 14 -33 -1 -10 -17 12 -8 20 -25 20 -41 -1
-26 -1 -26 -15 -8 -8 11 -15 15 -15 9 0 -7 5 -15 10 -18 6 -3 10 -15 10 -26 0
-16 -3 -17 -19 -7 -11 7 -17 16 -14 21 3 4 -2 16 -10 25 -7 9 -17 26 -21 37
-7 19 -8 19 -20 -4 l-13 -24 -18 27 c-15 23 -16 29 -5 36 8 5 18 6 22 4 4 -3
8 8 8 23 0 16 7 38 15 49 8 10 15 28 15 39 1 16 8 12 40 -24 l38 -44 8 59 c4
32 8 78 8 102 l1 43 22 -25 c13 -16 28 -23 37 -20z m-5990 3 c-8 -14 -21 -11
-21 5 0 8 6 12 14 9 7 -3 10 -9 7 -14z m-1 -25 c-7 -3 -11 -11 -9 -17 1 -7 1
-9 -1 -4 -3 4 -9 5 -14 1 -10 -6 -12 9 -2 19 3 4 13 7 22 6 10 0 11 -3 4 -5z
m7797 -84 c-19 -13 -30 -13 -30 0 0 6 10 10 23 10 18 0 19 -2 7 -10z m170 -20
c0 -13 -56 -41 -64 -32 -8 7 33 41 52 42 6 0 12 -4 12 -10z m640 -60 c0 -5 -5
-10 -11 -10 -5 0 -7 5 -4 10 3 6 8 10 11 10 2 0 4 -4 4 -10z m-260 -18 c0 -5
-11 -19 -25 -32 -14 -13 -25 -29 -25 -37 0 -18 -15 -16 -31 3 -12 14 -9 20 21
45 33 28 60 37 60 21z m-6330 -41 c0 -12 -9 -21 -26 -25 -33 -9 -39 -3 -22 23
16 26 48 28 48 2z m-1776 -16 c3 -10 4 -20 3 -21 -1 -1 -42 -5 -90 -8 l-88 -6
28 30 c25 27 33 29 85 27 47 -2 58 -5 62 -22z m-224 -13 c0 -14 -11 -21 -26
-15 -21 8 -17 23 6 23 11 0 20 -4 20 -8z m1906 -58 c-5 -14 -9 -15 -19 -5 -9
9 -9 14 3 21 18 11 24 6 16 -16z m-31 -14 c3 -5 1 -10 -4 -10 -6 0 -11 5 -11
10 0 6 2 10 4 10 3 0 8 -4 11 -10z m52 -22 c-3 -8 -6 -5 -6 6 -1 11 2 17 5 13
3 -3 4 -12 1 -19z m-22 -118 c3 -5 -1 -10 -10 -10 -9 0 -13 5 -10 10 3 6 8 10
10 10 2 0 7 -4 10 -10z m3465 -160 c0 -5 -4 -10 -10 -10 -5 0 -10 5 -10 10 0
6 5 10 10 10 6 0 10 -4 10 -10z m-1591 -29 c44 -23 63 -43 53 -56 -21 -30
-152 -135 -175 -140 -77 -20 -197 -243 -197 -369 -1 -61 -1 -61 -16 -32 -10
18 -14 44 -11 75 6 70 82 235 151 331 103 144 151 209 154 209 1 1 20 -8 41
-18z m4573 -63 c-15 -15 -26 -4 -18 18 5 13 9 15 18 6 9 -9 9 -15 0 -24z
m-876 -27 c-4 -6 -17 -11 -28 -11 -21 0 -21 1 -3 20 19 21 44 13 31 -9z
m-4578 -22 c-9 -27 -12 -29 -20 -15 -6 11 -6 22 2 32 21 24 30 16 18 -17z
m4762 11 c0 -23 -22 -26 -39 -6 -10 12 -8 15 11 19 13 2 24 5 26 6 1 0 2 -8 2
-19z m-4685 -20 c0 -30 -32 -35 -49 -7 -8 14 -8 20 4 27 24 16 45 7 45 -20z
m4629 -1 c30 -14 45 -43 18 -35 -9 3 -29 8 -44 12 -28 6 -34 15 -21 27 9 10
18 9 47 -4z m-578 -63 c14 -15 3 -32 -15 -22 -5 3 -20 -11 -33 -32 -17 -25
-39 -42 -70 -54 l-46 -16 -11 24 c-16 35 -14 51 7 58 9 3 44 16 77 30 72 30
73 30 91 12z m-4156 -28 c0 -6 -7 -5 -15 2 -8 7 -15 17 -15 22 0 6 7 5 15 -2
8 -7 15 -17 15 -22z m4740 13 c0 -12 -39 -25 -48 -16 -7 7 17 25 36 25 6 0 12
-4 12 -9z m-4766 -53 c9 -12 16 -32 16 -43 0 -21 17 -45 33 -45 4 0 5 6 1 13
-4 7 -3 9 2 4 5 -5 7 -9 4 -10 -6 -2 50 -67 95 -111 24 -23 31 -26 33 -12 3
12 8 14 21 7 10 -6 26 -8 37 -6 10 2 23 4 27 4 5 1 -1 17 -13 37 -22 34 -22
53 -1 39 6 -3 8 -12 5 -18 -4 -7 -3 -9 1 -4 20 17 64 -47 91 -132 15 -47 35
-104 45 -127 45 -103 75 -304 62 -414 -4 -36 -8 -67 -8 -70 -1 -3 -5 -24 -10
-47 -4 -24 -11 -43 -16 -43 -5 0 -6 -7 -3 -15 6 -15 -37 -65 -56 -65 -4 0 -10
-6 -13 -12 -6 -18 -64 37 -88 83 -10 21 -25 44 -34 53 -9 8 -24 34 -34 56 -15
34 -20 38 -30 26 -10 -11 -6 -21 17 -48 26 -29 72 -108 72 -123 0 -2 -10 -3
-22 -1 -18 3 -23 10 -21 32 0 16 -1 23 -4 16 -3 -9 -12 -5 -29 13 -13 14 -29
23 -34 20 -6 -3 -10 -1 -10 4 0 6 5 11 10 11 6 0 10 7 10 15 0 14 -4 17 -32
19 -7 1 -19 9 -27 20 -13 18 -15 18 -33 -5 -29 -38 -30 -36 -144 321 -25 78
-31 150 -14 150 6 0 13 -7 16 -15 4 -8 11 -15 16 -15 6 0 17 -8 24 -17 13 -17
13 -17 14 2 0 13 -14 28 -40 43 -49 28 -56 54 -34 122 16 49 18 51 29 30 6
-12 22 -27 36 -34 14 -7 23 -19 21 -29 -2 -10 4 -17 12 -17 9 0 31 -9 51 -20
65 -36 60 -21 -17 53 -42 41 -79 84 -83 95 -3 12 -10 22 -14 22 -11 0 -1 142
10 154 5 6 17 2 29 -9 23 -21 25 -11 5 25 -8 14 -14 28 -15 33 0 15 19 6 34
-15z m3853 -70 c-3 -8 -6 -5 -6 6 -1 11 2 17 5 13 3 -3 4 -12 1 -19z m-3632
-59 c11 -17 -1 -21 -15 -4 -8 9 -8 15 -2 15 6 0 14 -5 17 -11z m4845 -9 c0 -5
-2 -10 -4 -10 -3 0 -8 5 -11 10 -3 6 -1 10 4 10 6 0 11 -4 11 -10z m-4915 -10
c3 -5 2 -10 -4 -10 -5 0 -13 5 -16 10 -3 6 -2 10 4 10 5 0 13 -4 16 -10z
m3755 -15 c11 -13 10 -14 -4 -9 -9 3 -16 10 -16 15 0 13 6 11 20 -6z m831
-108 c-17 -21 -51 -28 -51 -12 0 20 42 47 54 35 6 -6 5 -14 -3 -23z m-751 -48
c7 -16 10 -32 7 -36 -4 -3 1 -19 9 -35 16 -30 13 -58 -6 -58 -5 0 -10 7 -10
15 0 8 -5 15 -11 15 -7 0 -9 11 -6 28 8 38 -5 56 -32 47 -16 -5 -20 -12 -16
-26 11 -35 -16 -20 -31 17 -16 38 -15 44 8 48 7 1 22 7 32 13 27 15 42 7 56
-28z m-107 -63 c3 -8 -1 -20 -9 -26 -12 -10 -14 -8 -14 14 0 28 14 35 23 12z
m478 -59 c-16 -16 -26 0 -10 19 9 11 15 12 17 4 2 -6 -1 -17 -7 -23z m-801
-332 c0 -17 -4 -23 -14 -19 -8 3 -12 13 -9 25 7 27 23 24 23 -6z m50 -45 c0
-5 -4 -10 -10 -10 -5 0 -10 5 -10 10 0 6 5 10 10 10 6 0 10 -4 10 -10z m-53
-112 c-3 -8 -6 -5 -6 6 -1 11 2 17 5 13 3 -3 4 -12 1 -19z m53 -29 c0 -11 -4
-17 -10 -14 -5 3 -10 13 -10 21 0 8 5 14 10 14 6 0 10 -9 10 -21z m-3290 -110
c0 -16 -28 3 -33 23 -5 19 -5 19 14 2 10 -9 19 -21 19 -25z m3197 -611 c-2
-102 0 -113 16 -112 9 1 17 -2 17 -7 0 -13 -37 -11 -45 2 -5 7 -13 5 -25 -6
-11 -10 -25 -15 -32 -12 -9 4 -7 6 4 6 25 1 35 27 42 116 5 75 14 125 22 125
1 0 2 -51 1 -112z m739 87 c0 -14 -7 -25 -13 -25 -10 0 -10 6 -1 25 14 31 16
31 14 0z m-119 -22 c-3 -10 -5 -4 -5 12 0 17 2 24 5 18 2 -7 2 -21 0 -30z
m172 -39 c15 -34 14 -41 -9 -64 -24 -24 -63 -26 -80 -5 -11 14 -10 14 14 5 59
-22 92 34 48 83 -14 16 -14 17 0 12 8 -3 20 -17 27 -31z m-182 -61 c-3 -10 -5
-4 -5 12 0 17 2 24 5 18 2 -7 2 -21 0 -30z m-1047 9 c18 -11 36 -25 38 -32 3
-7 -9 -2 -26 10 -16 12 -45 26 -63 30 -28 7 -30 8 -9 9 14 1 41 -7 60 -17z
m-117 -12 c-59 -35 -54 -122 9 -160 40 -24 76 -25 108 -3 l25 17 -19 -22 c-14
-16 -30 -22 -59 -22 -32 0 -46 7 -78 39 -51 50 -54 98 -10 142 16 16 35 29 43
29 7 0 -1 -9 -19 -20z m1010 -40 c12 0 29 6 37 13 12 10 12 9 1 -5 -27 -35
-91 -9 -91 36 1 16 4 14 15 -11 10 -24 21 -33 38 -33z m-205 7 c1 -30 -1 -38
-8 -27 -14 22 -11 70 4 70 1 0 2 -19 4 -43z m-331 1 c-3 -8 -6 -5 -6 6 -1 11
2 17 5 13 3 -3 4 -12 1 -19z m-110 -25 c-3 -10 -5 -4 -5 12 0 17 2 24 5 18 2
-7 2 -21 0 -30z m-263 21 c9 -3 16 -14 16 -24 0 -31 18 -32 34 -3 8 15 15 23
16 18 1 -24 -32 -56 -51 -50 -10 4 -19 2 -19 -3 0 -6 -7 -13 -16 -16 -20 -8
-54 2 -54 15 0 5 9 4 19 -3 25 -15 51 4 51 38 0 28 -30 33 -54 8 -9 -8 -16
-11 -16 -5 0 22 44 36 74 25z m609 -15 c5 -17 11 -20 32 -17 17 4 23 2 17 -4
-16 -16 -54 -4 -63 20 -5 12 -5 22 0 22 5 0 11 -10 14 -21z m242 -8 c-3 -6
-11 -11 -16 -11 -5 0 -4 6 3 14 14 16 24 13 13 -3z m-691 -6 c-4 -8 -8 -15
-10 -15 -2 0 -4 7 -4 15 0 8 4 15 10 15 5 0 7 -7 4 -15z m213 -7 c-3 -8 -6 -5
-6 6 -1 11 2 17 5 13 3 -3 4 -12 1 -19z m-46 -25 c10 3 19 1 19 -5 0 -16 -45
-4 -46 12 -1 10 0 11 3 2 3 -8 13 -12 24 -9z m-129 -7 c10 5 10 4 2 -5 -12
-13 -44 -5 -44 11 0 6 6 5 15 -2 8 -6 20 -8 27 -4z"/>
<path d="M8465 7390 c-3 -5 1 -10 9 -10 8 0 18 5 21 10 3 6 -1 10 -9 10 -8 0
-18 -4 -21 -10z"/>
<path d="M8578 7373 c7 -3 16 -2 19 1 4 3 -2 6 -13 5 -11 0 -14 -3 -6 -6z"/>
<path d="M8040 7043 c-22 -8 -64 -52 -57 -59 12 -12 87 30 87 48 0 19 -5 20
-30 11z"/>
<path d="M9055 6750 c-3 -5 3 -10 14 -10 12 0 21 5 21 10 0 6 -6 10 -14 10 -8
0 -18 -4 -21 -10z"/>
<path d="M9151 6373 c-10 -26 -10 -27 4 -9 8 11 15 23 15 28 0 15 -7 8 -19
-19z"/>
<path d="M9732 6250 c0 -14 2 -19 5 -12 2 6 2 18 0 25 -3 6 -5 1 -5 -13z"/>
<path d="M10240 6135 c0 -12 11 -25 25 -32 31 -14 31 -13 0 23 -22 25 -25 27
-25 9z"/>
<path d="M10131 6078 c10 -18 9 -20 -5 -15 -14 6 -16 3 -11 -16 4 -12 8 -26 9
-32 0 -5 9 -18 18 -29 9 -10 27 -37 38 -60 12 -23 18 -30 15 -16 -4 14 -9 42
-12 63 -4 34 -48 127 -59 127 -3 0 0 -10 7 -22z"/>
<path d="M10305 6070 c-8 -12 20 -24 35 -15 5 3 10 10 10 16 0 12 -37 12 -45
-1z"/>
<path d="M10520 6025 c-14 -16 -5 -54 9 -39 14 15 23 54 13 54 -5 0 -15 -7
-22 -15z"/>
<path d="M10570 6010 c0 -5 5 -10 11 -10 5 0 7 5 4 10 -3 6 -8 10 -11 10 -2 0
-4 -4 -4 -10z"/>
<path d="M10626 5945 c4 -8 10 -12 15 -9 14 8 10 24 -6 24 -9 0 -12 -6 -9 -15z"/>
<path d="M10290 5921 c5 -11 15 -23 21 -27 6 -3 3 5 -6 20 -20 30 -30 35 -15
7z"/>
<path d="M10490 5900 c0 -5 5 -10 11 -10 5 0 7 5 4 10 -3 6 -8 10 -11 10 -2 0
-4 -4 -4 -10z"/>
<path d="M10710 5881 c0 -5 8 -17 17 -27 20 -20 32 -1 13 21 -14 17 -30 20
-30 6z"/>
<path d="M8841 5821 c-6 -30 -10 -56 -8 -58 7 -6 29 85 25 99 -3 7 -10 -11
-17 -41z"/>
<path d="M10012 5720 c0 -14 2 -19 5 -12 2 6 2 18 0 25 -3 6 -5 1 -5 -13z"/>
<path d="M9824 5668 l-19 -23 23 19 c21 18 27 26 19 26 -2 0 -12 -10 -23 -22z"/>
<path d="M9200 5656 c7 -9 25 -16 40 -16 15 0 33 7 40 16 12 13 10 14 -13 3
-21 -10 -33 -10 -54 0 -23 11 -25 10 -13 -3z"/>
<path d="M9768 5643 c6 -2 18 -2 25 0 6 3 1 5 -13 5 -14 0 -19 -2 -12 -5z"/>
<path d="M9508 5203 c7 -3 16 -2 19 1 4 3 -2 6 -13 5 -11 0 -14 -3 -6 -6z"/>
<path d="M9558 5193 c7 -3 16 -2 19 1 4 3 -2 6 -13 5 -11 0 -14 -3 -6 -6z"/>
<path d="M6270 4939 c0 -5 5 -7 10 -4 6 3 10 8 10 11 0 2 -4 4 -10 4 -5 0 -10
-5 -10 -11z"/>
<path d="M5922 5210 c0 -14 2 -19 5 -12 2 6 2 18 0 25 -3 6 -5 1 -5 -13z"/>
<path d="M14206 4615 c-3 -8 -11 -14 -17 -13 -6 2 -14 -3 -16 -9 -3 -7 2 -13
10 -13 19 0 51 36 39 44 -6 3 -13 -1 -16 -9z"/>
<path d="M14336 4403 c-6 -14 -5 -15 5 -6 7 7 10 15 7 18 -3 3 -9 -2 -12 -12z"/>
<path d="M14283 4269 c-34 -40 -31 -59 6 -40 15 9 18 6 18 -20 0 -24 -4 -28
-19 -23 -27 8 -48 -13 -48 -49 l0 -31 40 39 c22 21 40 35 41 30 1 -18 18 30
18 53 1 13 -7 34 -16 46 l-18 22 -22 -27z"/>
<path d="M13067 3265 c-4 -8 -2 -17 3 -20 6 -4 10 3 10 14 0 25 -6 27 -13 6z"/>
<path d="M13567 3240 c-7 -27 -1 -39 12 -24 5 5 5 18 2 28 -7 18 -8 18 -14 -4z"/>
<path d="M13032 2834 c6 -13 17 -24 25 -24 21 0 15 -18 -12 -36 -36 -23 -31
-30 19 -28 51 2 106 23 106 41 0 19 -70 60 -112 66 -36 5 -37 5 -26 -19z"/>
<path d="M12753 2713 c-23 -15 -32 -43 -14 -43 9 0 45 50 39 55 -2 1 -13 -4
-25 -12z"/>
<path d="M12697 2643 c-4 -3 -2 -12 4 -20 6 -7 8 -13 3 -13 -5 -1 -22 -12 -39
-25 l-30 -25 35 0 c28 0 41 7 63 36 16 19 27 37 25 38 -9 8 -56 15 -61 9z"/>
<path d="M12986 2624 c-10 -27 9 -39 40 -26 31 15 27 36 -8 40 -17 2 -28 -3
-32 -14z"/>
<path d="M12590 2327 c0 -8 -5 -17 -12 -19 -6 -2 -8 -10 -4 -16 10 -17 19 -15
33 7 10 15 9 22 -2 31 -12 10 -15 9 -15 -3z"/>
<path d="M12725 2310 c-3 -5 -1 -10 4 -10 6 0 11 5 11 10 0 6 -2 10 -4 10 -3
0 -8 -4 -11 -10z"/>
<path d="M12530 2284 c0 -14 4 -23 9 -20 5 3 7 15 4 26 -7 28 -13 25 -13 -6z"/>
<path d="M12330 2056 c0 -9 5 -16 10 -16 6 0 10 4 10 9 0 6 -4 13 -10 16 -5 3
-10 -1 -10 -9z"/>
<path d="M13996 4794 c-9 -22 -8 -24 9 -24 8 0 15 6 15 14 0 22 -17 28 -24 10z"/>
<path d="M7820 3648 c0 -9 5 -20 10 -23 13 -8 13 5 0 25 -8 13 -10 13 -10 -2z"/>
<path d="M11660 3751 c0 -5 5 -13 10 -16 6 -3 10 -2 10 4 0 5 -4 13 -10 16 -5
3 -10 2 -10 -4z"/>
<path d="M8470 2791 c0 -5 11 -16 25 -25 14 -9 25 -12 25 -6 0 5 -4 10 -10 10
-5 0 -10 7 -10 15 0 8 -7 15 -15 15 -8 0 -15 -4 -15 -9z"/>
<path d="M8522 2722 c-8 -6 -4 -15 18 -30 33 -25 39 -19 12 15 -10 14 -22 20
-30 15z"/>
<path d="M8640 2716 c0 -2 8 -10 18 -17 15 -13 16 -12 3 4 -13 16 -21 21 -21
13z"/>
<path d="M8520 2556 c0 -28 135 -164 149 -150 5 5 -27 37 -47 46 -4 2 -14 16
-22 32 -14 27 -80 86 -80 72z"/>
</g>
</svg>
